<svg id="icon_floppydisk" width="42" height="42" viewBox="0 0 42 42" fill="none" xmlns="http://www.w3.org/2000/svg">
    <path d="M35.4375 14.9789V34.125C35.4375 34.4731 35.2992 34.8069 35.0531 35.0531C34.8069 35.2992 34.4731 35.4375 34.125 35.4375H7.875C7.5269 35.4375 7.19306 35.2992 6.94692 35.0531C6.70078 34.8069 6.5625 34.4731 6.5625 34.125V7.87501C6.5625 7.52691 6.70078 7.19307 6.94692 6.94693C7.19306 6.70079 7.5269 6.56251 7.875 6.56251H27.0211C27.1915 6.56191 27.3604 6.59493 27.518 6.65968C27.6757 6.72443 27.819 6.81964 27.9398 6.93985L35.0602 14.0602C35.1804 14.181 35.2756 14.3243 35.3403 14.482C35.4051 14.6396 35.4381 14.8085 35.4375 14.9789V14.9789Z" stroke="white" stroke-width="3" stroke-linecap="round" stroke-linejoin="round"/>
    <path d="M13.125 35.4375V24.9375C13.125 24.5894 13.2633 24.2556 13.5094 24.0094C13.7556 23.7633 14.0894 23.625 14.4375 23.625H27.5625C27.9106 23.625 28.2444 23.7633 28.4906 24.0094C28.7367 24.2556 28.875 24.5894 28.875 24.9375V35.4375" stroke="white" stroke-width="3" stroke-linecap="round" stroke-linejoin="round"/>
    <path d="M24.9375 13.125H15.75" stroke="white" stroke-width="3" stroke-linecap="round" stroke-linejoin="round"/>
</svg>
