<svg id="icon_folderopen" width="42" height="42" viewBox="0 0 42 42" fill="none" xmlns="http://www.w3.org/2000/svg">
    <path d="M5.25 34.125V10.5C5.25 10.1519 5.38828 9.81806 5.63442 9.57192C5.88056 9.32578 6.2144 9.1875 6.5625 9.1875H15.307C15.5908 9.18867 15.8668 9.28066 16.0945 9.45L20.6555 12.8625C20.8832 13.0318 21.1592 13.1238 21.443 13.125H32.8125C33.1606 13.125 33.4944 13.2633 33.7406 13.5094C33.9867 13.7556 34.125 14.0894 34.125 14.4375V18.375" stroke="white" stroke-width="3" stroke-linecap="round" stroke-linejoin="round"/>
    <path d="M5.25 34.125L10.1883 19.9172C10.2816 19.6604 10.4508 19.438 10.6736 19.2798C10.8963 19.1215 11.1619 19.0348 11.4352 19.0313H37.5211C37.7306 19.0304 37.9372 19.0796 38.1238 19.1749C38.3103 19.2702 38.4713 19.4087 38.5934 19.579C38.7154 19.7492 38.795 19.9462 38.8254 20.1534C38.8557 20.3607 38.836 20.5722 38.768 20.7703L34.125 34.125H5.25Z" stroke="white" stroke-width="3" stroke-linecap="round" stroke-linejoin="round"/>
</svg>
