<svg id="icon_gear" width="42" height="42" viewBox="0 0 42 42" fill="none" xmlns="http://www.w3.org/2000/svg">
    <path d="M21 28.2188C24.9868 28.2188 28.2188 24.9868 28.2188 21C28.2188 17.0132 24.9868 13.7812 21 13.7812C17.0132 13.7812 13.7812 17.0132 13.7812 21C13.7812 24.9868 17.0132 28.2188 21 28.2188Z" stroke="white" stroke-width="3" stroke-linecap="round" stroke-linejoin="round"/>
    <path d="M30.1382 10.6805C30.5539 11.0633 30.9476 11.457 31.3195 11.8617L35.7984 12.5016C36.5282 13.769 37.0907 15.1256 37.4718 16.5375L34.7484 20.1633C34.7484 20.1633 34.7976 21.2789 34.7484 21.8367L37.4718 25.4625C37.0924 26.8751 36.5298 28.2319 35.7984 29.4984L31.3195 30.1383C31.3195 30.1383 30.5484 30.9422 30.1382 31.3195L29.4984 35.7984C28.231 36.5282 26.8744 37.0907 25.4625 37.4719L21.8367 34.7484C21.2799 34.7977 20.72 34.7977 20.1632 34.7484L16.5375 37.4719C15.1249 37.0925 13.7681 36.5299 12.5015 35.7984L11.8617 31.3195C11.457 30.9367 11.0632 30.543 10.6804 30.1383L6.20151 29.4984C5.47173 28.2311 4.90924 26.8745 4.52808 25.4625L7.25151 21.8367C7.25151 21.8367 7.2187 20.7211 7.25151 20.1633L4.52808 16.5375C4.90747 15.125 5.47006 13.7681 6.20151 12.5016L10.6804 11.8617C11.0632 11.457 11.457 11.0633 11.8617 10.6805L12.5015 6.20157C13.7689 5.4718 15.1255 4.9093 16.5375 4.52814L20.1632 7.25157C20.72 7.20235 21.2799 7.20235 21.8367 7.25157L25.4625 4.52814C26.875 4.90753 28.2318 5.47012 29.4984 6.20157L30.1382 10.6805Z" stroke="white" stroke-width="3" stroke-linecap="round" stroke-linejoin="round"/>
</svg>
