<svg id="icon_home" width="42" height="42" viewBox="0 0 42 42" fill="none" xmlns="http://www.w3.org/2000/svg">
    <path d="M25.375 34.4152V26.5402C25.375 26.1921 25.2367 25.8583 24.9906 25.6121C24.7444 25.366 24.4106 25.2277 24.0625 25.2277H18.8125C18.4644 25.2277 18.1306 25.366 17.8844 25.6121C17.6383 25.8583 17.5 26.1921 17.5 26.5402V34.4152C17.5 34.7633 17.3617 35.0971 17.1156 35.3433C16.8694 35.5894 16.5356 35.7277 16.1875 35.7277H8.3125C7.9644 35.7277 7.63056 35.5894 7.38442 35.3433C7.13828 35.0971 7 34.7633 7 34.4152V19.2394C7.00294 19.0578 7.04219 18.8786 7.11545 18.7123C7.18871 18.5461 7.29449 18.3962 7.42656 18.2715L20.5516 6.34411C20.7935 6.12276 21.1096 6 21.4375 6C21.7654 6 22.0815 6.12276 22.3234 6.34411L35.4484 18.2715C35.5805 18.3962 35.6863 18.5461 35.7595 18.7123C35.8328 18.8786 35.8721 19.0578 35.875 19.2394V34.4152C35.875 34.7633 35.7367 35.0971 35.4906 35.3433C35.2444 35.5894 34.9106 35.7277 34.5625 35.7277H26.6875C26.3394 35.7277 26.0056 35.5894 25.7594 35.3433C25.5133 35.0971 25.375 34.7633 25.375 34.4152Z" stroke="black" stroke-width="3" stroke-linecap="round" stroke-linejoin="round"/>
</svg>