<svg id="icon_threedots" width="42" height="42" viewBox="0 0 42 42" fill="none" xmlns="http://www.w3.org/2000/svg">
    <path d="M21 23.625C22.4497 23.625 23.625 22.4497 23.625 21C23.625 19.5503 22.4497 18.375 21 18.375C19.5503 18.375 18.375 19.5503 18.375 21C18.375 22.4497 19.5503 23.625 21 23.625Z" fill="black"/>
    <path d="M10.5 23.625C11.9497 23.625 13.125 22.4497 13.125 21C13.125 19.5503 11.9497 18.375 10.5 18.375C9.05025 18.375 7.875 19.5503 7.875 21C7.875 22.4497 9.05025 23.625 10.5 23.625Z" fill="black"/>
    <path d="M31.5 23.625C32.9497 23.625 34.125 22.4497 34.125 21C34.125 19.5503 32.9497 18.375 31.5 18.375C30.0503 18.375 28.875 19.5503 28.875 21C28.875 22.4497 30.0503 23.625 31.5 23.625Z" fill="black"/>
</svg>
